<svg width="61" height="61" viewBox="0 0 61 61" fill="none" xmlns="http://www.w3.org/2000/svg">
<g filter="url(#filter0_b_1_1146)">
<circle cx="30.5" cy="30.5" r="30.5" fill="white"/>
</g>
<ellipse cx="28.3084" cy="32.9293" rx="7.25124" ry="6.39806" fill="#F9F7FF"/>
<path d="M42.005 34.4259C43.6805 34.8515 48.7446 36.0114 52 33.3555" stroke="#D9DCFF" stroke-width="2" stroke-linecap="round" stroke-linejoin="round"/>
<path d="M39.5879 31.6492C41.2635 32.0748 45.1951 30.0397 48.4505 27.3838" stroke="#D9DCFF" stroke-width="2" stroke-linecap="round" stroke-linejoin="round"/>
<path d="M36.2895 28.8686C37.8352 28.7399 40.6706 27.9156 42.4078 23.1184" stroke="#D9DCFF" stroke-width="2" stroke-linecap="round" stroke-linejoin="round"/>
<path d="M32.9578 27.3459C33.7964 27.0812 36.3649 23.1189 36.3649 18.8535" stroke="#D9DCFF" stroke-width="2" stroke-linecap="round" stroke-linejoin="round"/>
<path d="M28.9888 26.1453C28.9888 26.1453 31.2922 21.0794 30.4648 18.0001" stroke="#D9DCFF" stroke-width="2" stroke-linecap="round" stroke-linejoin="round"/>
<path d="M23.6752 26.9576C23.6752 26.9576 24.8066 23.9718 23.6752 19.7063" stroke="#D9DCFF" stroke-width="2" stroke-linecap="round" stroke-linejoin="round"/>
<path d="M19.1743 29.2378C19.1743 29.2378 19.5771 26.2521 18.2575 23.9713" stroke="#D9DCFF" stroke-width="2" stroke-linecap="round" stroke-linejoin="round"/>
<path d="M30.531 32.4299C30.531 33.8168 29.4828 34.8422 28.3082 34.8422C27.1337 34.8422 26.0854 33.8168 26.0854 32.4299C26.0854 31.043 27.1337 30.0176 28.3082 30.0176C29.4828 30.0176 30.531 31.043 30.531 32.4299Z" fill="#D9DCFF" stroke="#D9DCFF" stroke-width="2"/>
<path d="M13 35.6568C16.9865 29.37 28.3082 20.1322 42.005 34.6345" stroke="#D9DCFF" stroke-width="2" stroke-linecap="round" stroke-linejoin="round"/>
<path d="M16.0322 38.4727C19.9777 40.5491 30.5258 43.4562 41.1545 38.4727" stroke="#D9DCFF" stroke-width="2" stroke-linecap="round" stroke-linejoin="round"/>
<path d="M32.217 27.2015C33.6809 28.4739 34.5632 30.4459 34.4298 32.5949C34.2097 36.1409 31.3072 38.826 27.9469 38.5921C24.5866 38.3583 22.041 35.2941 22.2611 31.748C22.3812 29.8144 23.2988 28.1367 24.6534 27.0488" stroke="#D9DCFF" stroke-width="2"/>
<defs>
<filter id="filter0_b_1_1146" x="-7" y="-7" width="75" height="75" filterUnits="userSpaceOnUse" color-interpolation-filters="sRGB">
<feFlood flood-opacity="0" result="BackgroundImageFix"/>
<feGaussianBlur in="BackgroundImageFix" stdDeviation="3.5"/>
<feComposite in2="SourceAlpha" operator="in" result="effect1_backgroundBlur_1_1146"/>
<feBlend mode="normal" in="SourceGraphic" in2="effect1_backgroundBlur_1_1146" result="shape"/>
</filter>
</defs>
</svg>
